<?xml version="1.0"?>
<svg xmlns="http://www.w3.org/2000/svg" height="512px" viewBox="-47 0 495 495.992" width="512px"><path d="m398.832031 61.824219c1.105469-2.894531 1.664063-5.929688 1.664063-9.007813 0-10.945312-6.464844-20.886718-16.464844-25.328125l-56.96875-25.328125c-3.238281-1.433594-6.671875-2.160156-10.207031-2.160156-10.847657 0-20.441407 6.910156-23.847657 17.191406l-18.273437 54.808594h-3.8125l-16.011719-72h-108.832031l-16.007813 72h-3.8125l-18.265624-54.800781c-3.417969-10.289063-13-17.199219-23.855469-17.199219-3.535157 0-6.96875.726562-10.214844 2.167969l-56.960937 25.320312c-10 4.441407-16.464844 14.382813-16.464844 25.328125 0 3.078125.558594 6.113282 1.671875 9.023438l38.328125 99.648437v102.710938c-9.65625 7.3125-16 18.785156-16 31.792969v80c0 13.128906 6.449218 24.703124 16.246094 32h-.246094v48c0 22.054687 17.945312 40 40 40h240c22.054687 0 40-17.945313 40-40v-48h-.25c9.800781-7.289063 16.25-18.863282 16.25-31.992188v-80c0-13.015625-6.34375-24.496094-16.007813-31.800781l.007813-96.175781c0-.007813 0-.015626 0-.023438v-6.503906zm-14.335937-9.007813c0 1.128906-.199219 2.230469-.609375 3.289063l-24.183594 62.878906c-1.4375-8.824219-4.925781-16.9375-9.984375-23.871094l21.472656-55.816406 6.34375 2.824219c4.226563 1.863281 6.960938 6.0625 6.960938 10.695312zm-96 123.183594v-88h16c22.054687 0 40 17.945312 40 40v40.023438c-.015625 13.222656-10.777344 23.976562-24 23.976562h-16v-16zm-74.863282-144h-26.273437l3.550781-16h19.160156zm-29.824218 16h33.382812l5.335938 24h-44.046875zm56.6875 40v88h-16v16h-48v-16h-16v-88zm32 0v88h-16v-88zm-112 168v-32h16v-16h48v16h16v32zm-16-168v88h-16v-88zm16 104v16h-48v-16zm-16 32v32h-8c-2.777344 0-5.425782.464844-8 1.136719v-33.136719zm-24 64c0-8.824219 7.175781-16 16-16h128c8.824218 0 16 7.175781 16 16v16h-160zm0 32h32v40h16v-40h112v64c0 8.824219-7.175782 16-16 16h-128c-8.824219 0-16-7.175781-16-16zm152-62.863281c-2.574219-.671875-5.222656-1.136719-8-1.136719h-8v-32h16zm-32-49.136719v-16h48v16zm67.6875-185.753906c1.648437-4.957032 7.632812-7.582032 12.390625-5.460938l35.976562 15.992188-19.214843 49.949218c-9.238282-6.710937-20.566407-10.726562-32.839844-10.726562h-12.902344zm-53.664063 49.753906h-15.609375l-12.445312-56h15.605468zm-95.609375-56h15.609375l-12.449219 56h-15.605468zm-78.503906.792969c4.777344-2.136719 10.746094.496093 12.410156 5.472656l16.582032 49.734375h-12.902344c-12.273438 0-23.59375 4.015625-32.832032 10.734375l-19.214843-49.957031zm-63.910156 36.023437c0-4.632812 2.734375-8.832031 6.960937-10.710937l6.34375-2.816407 21.472657 55.824219c-5.058594 6.933594-8.546876 15.054688-9.984376 23.871094l-24.175781-62.863281c-.417969-1.074219-.617187-2.175782-.617187-3.304688zm40 75.183594c0-22.054688 17.945312-40 40-40h16v88h-16v16h-16c-13.230469 0-24-10.769531-24-24zm8 144h8v24h-32c0-13.230469 10.769531-24 24-24zm8 64h-32v-24h32zm-32 16h32v48h-8c-13.230469 0-24-10.769531-24-24zm280 128h-240c-13.230469 0-24-10.769531-24-24v-8h288v8c0 13.230469-10.769532 24-24 24zm16-80h-8v-48h32v24c0 13.230469-10.769532 24-24 24zm-8-88h32v24h-32zm0-16v-24h8c13.230468 0 24 10.769531 24 24zm8-40h-24v160h24c2.734375 0 5.414062-.28125 8-.808594v16.808594h-288v-16.808594c2.582031.527344 5.265625.808594 8 .808594h24v-160h-24c-2.734375 0-5.417969.28125-8 .808594v-57.015625c6.703125 5.078125 14.960937 8.207031 24 8.207031h16v16h16v43.054688c-4.921875 5.625-8 12.898437-8 20.945312v96c0 17.648438 14.351562 32 32 32h128c17.648437 0 32-14.351562 32-32v-96c0-8.039062-3.082032-15.3125-8-20.945312v-43.054688h16v-16h16c9.039062 0 17.289062-3.128906 24-8.199219v57.007813c-2.59375-.527344-5.265625-.808594-8-.808594zm0 0" fill="#FFDA44"/></svg>
