<?xml version="1.0"?>
<svg xmlns="http://www.w3.org/2000/svg" height="512px" viewBox="-48 0 496 496" width="512px"><path d="m379.566406 223.640625c11.539063-1.746094 20.433594-11.625 20.433594-23.640625s-8.894531-21.894531-20.433594-23.640625c10.691406-4.664063 16.722656-16.519531 13.625-28.128906-3.113281-11.597657-14.253906-18.855469-25.839844-17.550781 9.105469-7.28125 11.863282-20.289063 5.855469-30.679688-3.199219-5.550781-8.375-9.527344-14.566406-11.183594-5.007813-1.34375-10.167969-.96875-14.90625.886719 3.027344-4.09375 4.730469-8.976563 4.730469-14.167969 0-6.40625-2.496094-12.4375-7.03125-16.96875-8.21875-8.214844-21.921875-8.894531-31.167969-2.238281 1.878906-4.753906 2.269531-9.9375.917969-14.976563-1.664063-6.183593-5.640625-11.351562-11.183594-14.550781-10.382812-5.992187-23.398438-3.242187-30.6875 5.878907 1.3125-11.589844-5.945312-22.75-17.550781-25.863282-11.570313-3.128906-23.449219 2.925782-28.121094 13.625-1.738281-11.546875-11.625-20.441406-23.640625-20.441406s-21.894531 8.894531-23.640625 20.433594c-4.664063-10.691406-16.519531-16.746094-28.128906-13.625-11.597657 3.113281-18.847657 14.253906-17.542969 25.847656-7.28125-9.105469-20.296875-11.871094-30.679688-5.863281-5.550781 3.199219-9.527343 8.375-11.183593 14.566406-1.351563 5.03125-.960938 10.214844.917969 14.976563-9.246094-6.664063-22.941407-5.984376-31.167969 2.230468-4.527344 4.53125-7.03125 10.5625-7.03125 16.96875 0 5.183594 1.703125 10.074219 4.722656 14.160156-4.730469-1.855468-9.882813-2.230468-14.898437-.878906-6.191407 1.65625-11.367188 5.632813-14.566407 11.175782-6.007812 10.390624-3.25 23.40625 5.871094 30.6875-11.601563-1.3125-22.742187 5.945312-25.855469 17.550781-3.097656 11.601562 2.9375 23.457031 13.625 28.121093-11.546875 1.753907-20.441406 11.632813-20.441406 23.648438s8.894531 21.894531 20.433594 23.640625c-10.691406 4.664063-16.722656 16.519531-13.625 28.128906 2.871094 10.710938 12.589844 17.789063 23.191406 17.789063.9375 0 1.886719-.261719 2.832031-.375-9.246093 7.257812-12.089843 20.359375-6.046875 30.816406 3.199219 5.550781 8.375 9.527344 14.566406 11.183594 2.074219.550781 4.167969.832031 6.25.832031 3.03125 0 5.972657-.777344 8.8125-1.910156-3.117187 4.125-4.886718 9.085937-4.886718 14.359375 0 6.40625 2.496094 12.4375 7.03125 16.96875 4.539062 4.527344 10.5625 7.03125 16.96875 7.03125 5.183594 0 10.074218-1.703125 14.160156-4.722656-1.855469 4.738281-2.230469 9.898437-.886719 14.90625 1.65625 6.191406 5.632813 11.367187 11.175781 14.566406 3.765626 2.167968 7.886719 3.210937 11.960938 3.210937 7.214844 0 14.125-3.425781 18.765625-9.347656-1.445313 11.683594 5.816406 22.976563 17.511719 26.113281 2.066406.550782 4.144531.824219 6.183594.824219 2.417968 0 4.777343-.40625 7.035156-1.105469-.898438 4.785156-1.433594 9.832032-1.433594 15.089844 0 21.710938 8.40625 40.167969 21.015625 49.488281-3.105469 4.039063-5.015625 9.039063-5.015625 14.511719 0 13.230469 10.769531 24 24 24s24-10.769531 24-24c0-5.472656-1.910156-10.472656-5.015625-14.511719 12.609375-9.320312 21.015625-27.777343 21.015625-49.488281 0-5.257812-.535156-10.304688-1.457031-15.097656 2.257812.699218 4.617187 1.105468 7.03125 1.105468 2.050781 0 4.128906-.265624 6.195312-.824218 11.679688-3.136719 18.941407-14.421875 17.503907-26.105469 4.636718 5.90625 11.550781 9.328125 18.765624 9.328125 4.074219 0 8.183594-1.03125 11.953126-3.207031 5.550781-3.199219 9.527343-8.375 11.183593-14.566407 1.34375-5.007812.96875-10.167968-.886719-14.90625 4.09375 3.027344 8.976563 4.730469 14.167969 4.730469 6.40625 0 12.4375-2.496093 16.96875-7.03125 4.527344-4.539062 7.03125-10.5625 7.03125-16.96875 0-5.273437-1.769531-10.234375-4.882812-14.359375 2.832031 1.132813 5.777343 1.910156 8.808593 1.910156 2.082032 0 4.175782-.273437 6.25-.832031 6.191407-1.65625 11.367188-5.632812 14.566407-11.175781 6.046875-10.464844 3.207031-23.566406-6.0625-30.824219.953125.113281 1.910156.375 2.847656.375 10.601563 0 20.320313-7.078125 23.191406-17.796875 3.113281-11.59375-2.917969-23.449218-13.609375-28.113281zm4.433594-23.640625c0 4.414062-3.585938 8-8 8s-8-3.585938-8-8 3.585938-8 8-8 8 3.585938 8 8zm-14-53.550781c3.527344 0 6.777344 2.359375 7.734375 5.917969 1.144531 4.265624-1.40625 8.671874-5.664063 9.816406-4.261718 1.113281-8.65625-1.40625-9.796874-5.664063-1.144532-4.253906 1.398437-8.65625 5.65625-9.800781.695312-.191406 1.390624-.269531 2.070312-.269531zm-21.574219-41.378907c1.230469-.710937 2.597657-1.078124 3.980469-1.078124.699219 0 1.402344.097656 2.089844.28125 2.0625.542968 3.785156 1.871093 4.847656 3.726562 2.207031 3.824219.894531 8.71875-2.917969 10.929688-3.839843 2.214843-8.738281.871093-10.929687-2.921876-2.207032-3.832031-.894532-8.734374 2.929687-10.9375zm-29.617187-35.183593c1.503906-1.511719 3.503906-2.34375 5.648437-2.34375 2.136719 0 4.144531.832031 5.65625 2.34375 1.503907 1.511719 2.34375 3.519531 2.34375 5.65625 0 2.144531-.832031 4.144531-2.34375 5.648437v.007813c-3.035156 3.023437-8.28125 3.03125-11.3125-.007813-1.511719-1.503906-2.34375-3.503906-2.34375-5.648437 0-2.128907.832031-4.136719 2.351563-5.65625zm-37.738282-26.300781c1.480469-2.570313 4.167969-4 6.9375-4 1.359376 0 2.734376.34375 4 1.070312 1.839844 1.070312 3.167969 2.792969 3.71875 4.847656.554688 2.0625.273438 4.214844-.796874 6.070313-2.210938 3.824219-7.121094 5.136719-10.929688 2.929687-3.824219-2.199218-5.136719-7.105468-2.929688-10.917968zm-43.246093-15.65625c.960937-3.570313 4.199219-5.9375 7.742187-5.9375.679688 0 1.378906.085937 2.066406.273437 4.253907 1.140625 6.800782 5.535156 5.65625 9.804687-1.152343 4.265626-5.519531 6.824219-9.800781 5.65625-4.265625-1.140624-6.808593-5.542968-5.664062-9.796874zm-37.824219-11.929688c4.414062 0 8 3.585938 8 8s-3.585938 8-8 8-8-3.585938-8-8 3.585938-8 8-8zm-47.632812 6.265625c.695312-.175781 1.386718-.273437 2.074218-.273437 3.535156 0 6.78125 2.367187 7.742188 5.9375 1.136718 4.253906-1.40625 8.65625-5.664063 9.796874-4.320312 1.144532-8.648437-1.398437-9.800781-5.65625-1.144531-4.261718 1.402344-8.664062 5.648438-9.804687zm-48.09375 23.238281c.542968-2.0625 1.871093-3.785156 3.726562-4.847656 1.257812-.726562 2.632812-1.070312 3.984375-1.070312 2.777344 0 5.472656 1.429687 6.945313 3.988281 2.199218 3.824219.886718 8.730469-2.921876 10.929687-3.824218 2.199219-8.734374.878906-10.9375-2.929687-1.070312-1.847657-1.351562-4.007813-.796874-6.070313zm-34.386719 24.382813c1.511719-1.503907 3.519531-2.34375 5.65625-2.34375 2.144531 0 4.144531.832031 5.648437 2.34375h.007813c1.503906 1.511719 2.34375 3.519531 2.34375 5.65625 0 2.144531-.832031 4.144531-2.351563 5.65625-3.007812 3.023437-8.261718 3.03125-11.304687-.007813-1.511719-1.503906-2.34375-3.503906-2.34375-5.648437 0-2.128907.839843-4.136719 2.34375-5.65625zm-29.230469 38.105469c1.070312-1.839844 2.792969-3.167969 4.847656-3.71875.6875-.183594 1.390625-.28125 2.089844-.28125 1.382812 0 2.75.367187 3.980469 1.078124 3.824219 2.203126 5.136719 7.113282 2.929687 10.929688-2.207031 3.816406-7.136718 5.136719-10.917968 2.929688-3.816407-2.203126-5.136719-7.105469-2.929688-10.9375zm-18.390625 44.382812c.957031-3.566406 4.199219-5.925781 7.734375-5.925781.679688 0 1.375.085937 2.070312.269531 4.257813 1.152344 6.800782 5.539062 5.65625 9.800781-1.140624 4.265625-5.519531 6.792969-9.796874 5.664063-4.257813-1.144532-6.800782-5.550782-5.664063-9.808594zm-6.265625 47.625c0-4.414062 3.585938-8 8-8s8 3.585938 8 8-3.585938 8-8 8-8-3.585938-8-8zm6.265625 47.632812c-1.144531-4.265624 1.40625-8.671874 5.664063-9.816406 4.253906-1.136718 8.644531 1.40625 9.796874 5.664063 1.144532 4.253906-1.398437 8.65625-5.65625 9.800781-4.308593 1.152344-8.664062-1.402344-9.804687-5.648438zm29.308594 47.296876c-1.855469 1.070312-4.015625 1.351562-6.070313.796874-2.0625-.542968-3.785156-1.871093-4.847656-3.726562-2.207031-3.824219-.894531-8.71875 2.917969-10.929688 3.832031-2.214843 8.738281-.878906 10.929687 2.921876 2.207032 3.832031.894532 8.734374-2.929687 10.9375zm29.617187 35.183593c-3.007812 3.023438-8.261718 3.023438-11.304687 0-1.503907-1.511719-2.34375-3.519531-2.34375-5.65625 0-2.144531.832031-4.144531 2.34375-5.648437v-.007813c1.511719-1.503906 3.519531-2.34375 5.65625-2.34375 2.144531 0 4.144531.832031 5.65625 2.351563 1.511719 1.503906 2.34375 3.503906 2.34375 5.648437 0 2.128907-.832031 4.136719-2.351563 5.65625zm37.738282 26.300781c-2.210938 3.832032-7.105469 5.136719-10.9375 2.929688-1.839844-1.070312-3.167969-2.792969-3.71875-4.847656-.554688-2.0625-.273438-4.214844.796874-6.070313 2.203126-3.832031 7.113282-5.144531 10.929688-2.929687 3.824219 2.199218 5.136719 7.105468 2.929688 10.917968zm33.445312 21.320313c-4.253906-1.140625-6.800781-5.535156-5.65625-9.804687 1.152344-4.265626 5.546875-6.816407 9.800781-5.65625 4.257813 1.140624 6.808594 5.535156 5.664063 9.796874-1.152344 4.257813-5.542969 6.832032-9.808594 5.664063zm55.625 94.265625c0 4.414062-3.585938 8-8 8s-8-3.585938-8-8 3.585938-8 8-8 8 3.585938 8 8zm-8-24c-13.007812 0-24-18.320312-24-40s10.992188-40 24-40 24 18.320312 24 40-10.992188 40-24 40zm47.632812-70.265625c-4.28125 1.097656-8.671874-1.40625-9.816406-5.664063-1.136718-4.253906 1.40625-8.65625 5.664063-9.796874 4.28125-1.167969 8.648437 1.398437 9.800781 5.65625 1.144531 4.261718-1.402344 8.664062-5.648438 9.804687zm48.09375-23.238281c-.542968 2.0625-1.871093 3.785156-3.726562 4.847656-3.839844 2.207031-8.734375.886719-10.929688-2.917969-2.199218-3.824219-.886718-8.730469 2.921876-10.929687 3.832031-2.207032 8.734374-.886719 10.9375 2.929687 1.070312 1.847657 1.351562 4.007813.796874 6.070313zm-19.726562-22.863282c-8.449219 4.878907-12.769531 14.160157-11.824219 23.296876-5.792969-7.128907-15.40625-10.640626-24.832031-8.105469-7.886719 2.113281-13.785156 7.953125-16.359375 15.113281-6.464844-6.273438-14.359375-9.9375-22.984375-9.9375s-16.519531 3.664062-22.984375 9.9375c-2.574219-7.160156-8.472656-13-16.359375-15.113281-9.441406-2.535157-19.046875.976562-24.832031 8.105469.945312-9.136719-3.382813-18.410157-11.832031-23.289063-8.457032-4.871094-18.648438-3.96875-26.082032 1.414063 1.042969-2.710938 1.640625-5.597657 1.640625-8.589844 0-6.417969-2.496093-12.449219-7.023437-16.96875-6.6875-6.6875-17.046875-8.417969-25.671875-5.222656 5.488281-7.449219 6.425781-17.746094 1.519531-26.265626-4.886719-8.449218-14.160156-12.769531-23.285156-11.824218 7.125-5.792969 10.628906-15.40625 8.101562-24.832032-2.519531-9.421874-10.359375-16.007812-19.421875-17.464843 8.359375-3.757813 14.230469-12.132813 14.230469-21.886719 0-9.734375-5.855469-18.105469-14.207031-21.863281 9.046875-1.464844 16.871093-8.074219 19.390625-17.480469 2.550781-9.511719-1.023438-19.230469-8.289063-25.007812.882813.09375 1.761719.34375 2.640625.34375 8.304688 0 16.394532-4.304688 20.832032-12 4.871093-8.449219 3.976562-18.648438-1.40625-26.082032 2.710937 1.042969 5.597656 1.632813 8.589843 1.632813 6.417969 0 12.449219-2.496094 16.96875-7.023438 4.527344-4.527343 7.03125-10.558593 7.03125-16.976562 0-3.078125-.605469-6.0625-1.710937-8.847657 4.152344 3.066407 9.082031 4.871094 14.207031 4.871094 4.066406 0 8.183594-1.03125 11.953125-3.199218 8.472656-4.894532 12.800781-14.207032 11.824219-23.359376 4.519531 5.585938 11.335937 8.992188 18.632812 8.992188 2.046875 0 4.136719-.265625 6.199219-.824219 9.421875-2.519531 16-10.367187 17.457031-19.433593 3.742188 8.386718 12.125 14.257812 21.886719 14.257812s18.144531-5.871094 21.886719-14.257812c1.457031 9.066406 8.035156 16.914062 17.457031 19.433593 2.070312.550781 4.160156.824219 6.199219.824219 7.296875 0 14.113281-3.40625 18.632812-8.992188-.96875 9.152344 3.359375 18.472657 11.832031 23.359376 3.769532 2.167968 7.878907 3.199218 11.945313 3.199218 5.125 0 10.0625-1.8125 14.214844-4.878906-1.105469 2.785156-1.710938 5.769531-1.710938 8.855469 0 6.417969 2.496094 12.449219 7.023438 16.96875 4.527343 4.527343 10.558593 7.03125 16.976562 7.03125 2.992188 0 5.878907-.589844 8.589844-1.632813-5.382813 7.433594-6.277344 17.632813-1.40625 26.089844 4.449219 7.6875 12.527344 11.992188 20.832031 11.992188.878906 0 1.757813-.238282 2.640625-.34375-7.265625 5.765624-10.839843 15.496093-8.289062 25.007812 2.519531 9.40625 10.335937 16.015625 19.390625 17.480469-8.359375 3.757812-14.214844 12.128906-14.214844 21.863281 0 9.753906 5.863281 18.128906 14.238281 21.878906-9.070312 1.449219-16.894531 8.042969-19.414062 17.464844-2.527344 9.425781.976562 19.039062 8.105469 24.832031-9.128907-.945312-18.410157 3.382813-23.296876 11.832031-4.914062 8.519532-3.976562 18.816407 1.519532 26.265626-8.625-3.195313-18.984375-1.464844-25.671875 5.207031-4.527344 4.527343-7.03125 10.558593-7.03125 16.976562 0 2.992188.589843 5.878907 1.628906 8.589844-7.429687-5.382813-17.621094-6.292969-26.078125-1.414063zm54.113281-1.519531c-3.035156 3.023438-8.289062 3.03125-11.304687 0h-.007813c-1.503906-1.511719-2.34375-3.519531-2.34375-5.65625 0-2.144531.832031-4.144531 2.351563-5.65625 1.503906-1.511719 3.503906-2.34375 5.648437-2.34375 2.136719 0 4.144531.832031 5.65625 2.351563 1.511719 1.503906 2.34375 3.503906 2.34375 5.648437 0 2.128907-.839843 4.136719-2.34375 5.65625zm29.230469-38.105469c-1.070312 1.839844-2.792969 3.167969-4.847656 3.71875-2.046875.5625-4.207032.273438-6.070313-.796874-3.824219-2.203126-5.136719-7.113282-2.929687-10.929688 2.199218-3.832031 7.128906-5.144531 10.917968-2.929688 3.816407 2.203126 5.136719 7.105469 2.929688 10.9375zm18.390625-44.382812c-1.140625 4.253906-5.488281 6.824219-9.804687 5.65625-4.257813-1.152344-6.800782-5.539062-5.65625-9.800781 1.152343-4.257813 5.542968-6.785157 9.796874-5.664063 4.257813 1.144532 6.800782 5.550782 5.664063 9.808594zm0 0" fill="#FFDA44"/></svg>
