<?xml version="1.0"?>
<svg xmlns="http://www.w3.org/2000/svg" height="512px" viewBox="0 -13 512.00059 512" width="512px"><path d="m11.371094 423.058594c10.621094 2.359375 41.414062 9.199218 52.023437 11.558594 7.394531 1.644531 14.832031-3.058594 16.613281-10.320313l43.699219-178.300781v223.023437c0 9.679688 7.875 17.550781 17.550781 17.550781h229.484376c9.679687 0 17.550781-7.871093 17.550781-17.550781v-223.023437c1.160156 4.734375 40.4375 164.992187 43.703125 178.300781 1.796875 7.351563 9.300781 11.945313 16.609375 10.320313l52.023437-11.558594c7.511719-1.671875 12.542969-8.980469 11.136719-16.757813l-33.855469-187.109375c-.734375-4.078125-4.644531-6.78125-8.714844-6.046875-4.074218.738281-6.78125 4.640625-6.042968 8.714844l27.390625 151.414063c-16.460938 3.648437-36.417969 7.976562-52.789063 11.507812l-49.460937-201.796875v-25.492187c0-4.144532-3.359375-7.5-7.5-7.5-4.144531 0-7.5 3.355468-7.5 7.5v36.652343l-8.984375-8.988281c-4.5-4.5-11.828125-4.5-16.328125 0l-25.21875 25.21875-25.214844-25.214844c-4.511719-4.511718-11.816406-4.515625-16.328125-.003906l-25.21875 25.21875-25.214844-25.214844c-4.507812-4.511718-11.816406-4.515625-16.328125-.003906l-25.21875 25.21875-25.214843-25.214844c-4.511719-4.511718-11.816407-4.515625-16.328126-.003906l-8.984374 8.988281c0-19.007812 0-20.429687 0-36.652343 0-4.144532-3.359376-7.5-7.5-7.5-4.144532 0-7.503907 3.355468-7.503907 7.5v25.492187l-49.457031 201.796875c-16.371094-3.53125-36.457031-7.886719-52.792969-11.507812l52.652344-291.03125c3.027344-16.730469 14.867187-30.644532 30.898437-36.3125l47.757813-16.886719c9.3125 49.035156 52.328125 85.394531 103.234375 85.394531 50.972656 0 93.9375-36.421875 103.234375-85.394531l47.761719 16.886719c16.03125 5.667968 27.871094 19.582031 30.894531 36.3125l18.929687 104.617187c.652344 3.625 3.8125 6.164063 7.371094 6.164063 4.699219 0 8.21875-4.246094 7.386719-8.835938l-18.929687-104.617188c-3.980469-22.015624-19.558594-40.324218-40.652344-47.785156-9.875-3.488281-76.980469-27.214844-87.238282-30.839844-.003906 0-.003906 0-.003906 0-.003906-.003906-.011718-.003906-.015625-.003906-.332031-.117187-.675781-.222656-1.023437-.316406-1.453125-.40625-2.949219-.625-4.46875-.625h-45.746094c-4.140625 0-7.5 3.359375-7.5 7.5 0 4.144531 3.359375 7.5 7.5 7.5h38.953125c-2.847656 28.636719-27.078125 51.078125-56.453125 51.078125s-53.605469-22.441406-56.453125-51.078125h38.953125c4.144531 0 7.5-3.355469 7.5-7.5 0-4.140625-3.355469-7.5-7.5-7.5h-45.746094c-1.515625 0-3.011718.21875-4.464844.625-.355468.097656-.703124.199219-1.042968.320312-6.605469 2.335938-75.851563 26.816407-87.238282 30.839844-21.097656 7.460938-36.675781 25.769532-40.65625 47.785156l-59.113281 326.730469c-1.394531 7.699219 3.496094 15.058594 11.132813 16.757813zm481.84375-35.011719 3.703125 20.46875-18.261719 4.058594-4.527344-20.332031c6.644532-1.453126 13.128906-2.875 19.085938-4.195313zm-33.742188 7.382813 4.542969 20.398437-17.691406 3.929687-5-20.398437c5.742187-1.242187 11.894531-2.570313 18.148437-3.929687zm-263.722656 76.140624h-21.742188v-20.703124h21.742188zm34.898438 0h-19.898438v-20.703124h19.898438zm35.703124 0h-20.703124v-20.703124h20.703124zm34.898438 0h-19.898438v-20.703124h19.898438zm36.742188 0h-21.742188v-20.703124h21.742188zm35.300781-2.550781c0 1.40625-1.144531 2.550781-2.550781 2.550781h-17.746094v-20.703124h20.296875zm-42.367188-245.59375 25.21875-25.21875 17.148438 17.148438v21.535156l-17.148438 17.148437-25.21875-25.214843c-1.21875-1.21875-2.664062-2.132813-4.238281-2.699219 1.574219-.566406 3.019531-1.480469 4.238281-2.699219zm-66.761719 0 25.214844-25.21875 25.21875 25.21875c1.21875 1.21875 2.664063 2.132813 4.238282 2.699219-1.574219.566406-3.019532 1.480469-4.238282 2.699219l-25.21875 25.214843-25.214844-25.214843c-1.21875-1.21875-2.660156-2.132813-4.238281-2.699219 1.578125-.566406 3.019531-1.480469 4.238281-2.699219zm-66.761718 0 25.21875-25.21875 25.214844 25.21875c1.21875 1.21875 2.664062 2.132813 4.238281 2.699219-1.574219.566406-3.019531 1.480469-4.238281 2.699219l-25.214844 25.214843-25.21875-25.214843c-1.21875-1.21875-2.660156-2.132813-4.238282-2.699219 1.578126-.566406 3.019532-1.480469 4.238282-2.699219zm-58.691406-8.070312 17.148437-17.144531 25.214844 25.214843c1.21875 1.21875 2.664062 2.132813 4.238281 2.699219-1.574219.566406-3.019531 1.480469-4.238281 2.699219l-25.214844 25.21875-17.148437-17.152344zm0 42.75c9.078124 9.082031 11.136718 12.371093 17.148437 12.371093 3.085937 0 5.984375-1.203124 8.164063-3.382812l25.214843-25.21875 25.214844 25.214844c4.515625 4.515625 11.816406 4.515625 16.332031.003906l25.214844-25.21875 25.21875 25.21875c4.519531 4.519531 11.820312 4.503906 16.324219 0l25.21875-25.21875 25.214843 25.21875c4.503907 4.5 11.828126 4.503906 16.332032 0l8.984375-8.988281v177.761719c-9.273438 0-228.953125 0-234.582031 0zm0 192.761719h20.296874v20.703124h-17.75c-1.40625 0-2.546874-1.144531-2.546874-2.550781zm-86.199219-55.441407c6.257812 1.359375 12.417969 2.691407 18.164062 3.929688l-5 20.402343-17.015625-3.78125zm132.238281-377.6875c4.171875 35.613281 34.535156 63.34375 71.25 63.34375 36.71875 0 67.082031-27.726562 71.25-63.34375l17.65625 6.242188c-7.023438 43.40625-44.269531 75.457031-88.90625 75.457031s-81.882812-32.050781-88.90625-75.457031zm-165.964844 370.308594c6.339844 1.402344 12.746094 2.808594 19.0625 4.1875l-3.839844 20.488281-18.925781-4.207031zm0 0" fill="#FFDA44"/></svg>
